<?xml version="1.0" encoding="utf-8"?>
<!-- Generator: Adobe Illustrator 24.3.0, SVG Export Plug-In . SVG Version: 6.00 Build 0)  -->
<svg version="1.1" xmlns="http://www.w3.org/2000/svg" xmlns:xlink="http://www.w3.org/1999/xlink" x="0px" y="0px"
	 viewBox="0 0 1920 1080" style="enable-background:new 0 0 1920 1080;" xml:space="preserve">
<style type="text/css">
	.st0{display:none;}
	.st1{display:inline;fill:none;}
	.st2{display:inline;}
	.st3{fill:#39BEEC;}
	.st4{font-family:'OpenSans-Bold';}
	.st5{font-size:293.7253px;}
	.st6{letter-spacing:-14;}
	.st7{fill:#1B60A3;}
	.st8{fill:#206994;}
	.st9{fill:#367FAC;}
	.st10{fill:#85B3CB;}
	.st11{fill:#488DB4;}
	.st12{fill:#1B5F86;}
	.st13{fill:#2272A5;}
	.st14{fill:#CA4B06;}
	.st15{fill:#F8782F;}
	.st16{fill:#F6681C;}
	.st17{fill:#F8A77A;}
	.st18{fill:#FA965A;}
	.st19{fill:#F98748;}
	.st20{fill:#E15309;}
</style>
<g id="Layer_4" class="st0">
	<rect x="249.6" y="383.9" class="st1" width="1514.5" height="231.7"/>
	<text transform="matrix(1 0 0 1 249.589 607.1443)" class="st2"><tspan x="0" y="0" class="st3 st4 st5 st6">Spark</tspan><tspan x="767.2" y="0" class="st7 st4 st5 st6">DeFi</tspan></text>
</g>
<g id="Layer_3" class="st0">
	<g class="st2">
		<polygon class="st8" points="224.6,321.6 86.8,443.5 224.6,443.5 		"/>
		<polygon class="st9" points="224.5,443.6 86.8,565.5 224.5,565.5 		"/>
		<polygon class="st10" points="224.5,565.5 86.8,687.4 224.5,687.4 		"/>
		<polygon class="st10" points="224.5,687.4 362.3,565.5 224.5,565.5 		"/>
		<polygon class="st11" points="224.5,565.5 362.3,443.6 224.5,443.6 		"/>
		<polygon class="st12" points="224.5,443.6 362.3,321.7 224.5,321.7 		"/>
		<polygon class="st13" points="86.8,565.5 224.5,443.6 86.8,443.6 		"/>
		<polygon class="st14" points="362.3,443.6 500,321.7 362.3,321.7 		"/>
		<polygon class="st15" points="362.3,565.5 500,443.6 362.3,443.6 		"/>
		<polygon class="st16" points="362.3,443.6 224.5,565.5 362.3,565.5 		"/>
		<polygon class="st17" points="362.3,565.5 224.5,687.4 362.3,687.4 		"/>
		<polygon class="st18" points="362.3,687.4 500,565.5 362.3,565.5 		"/>
		<polygon class="st19" points="500,443.6 362.3,565.5 500,565.5 		"/>
		<polygon class="st20" points="362.3,321.7 224.5,443.6 362.3,443.6 		"/>
	</g>
</g>
<g id="Layer_1">
	<g>
		<path class="st3" d="M715.7,580c0,18.9-6.8,33.8-20.4,44.7c-13.6,10.9-32.6,16.3-56.9,16.3c-22.4,0-42.2-4.2-59.4-12.6v-41.3
			c14.1,6.3,26.1,10.8,35.9,13.3c9.8,2.6,18.8,3.9,26.9,3.9c9.8,0,17.2-1.9,22.4-5.6c5.2-3.7,7.8-9.3,7.8-16.6c0-4.1-1.1-7.8-3.4-11
			c-2.3-3.2-5.7-6.3-10.1-9.2c-4.4-3-13.5-7.7-27.2-14.2c-12.8-6-22.4-11.8-28.8-17.4c-6.4-5.5-11.5-12-15.3-19.4
			c-3.8-7.4-5.7-16-5.7-25.8c0-18.5,6.3-33.1,18.9-43.7c12.6-10.6,30-15.9,52.1-15.9c10.9,0,21.3,1.3,31.2,3.9s20.2,6.2,31.1,10.9
			l-14.3,34.6c-11.2-4.6-20.4-7.8-27.8-9.6c-7.3-1.8-14.5-2.7-21.6-2.7c-8.4,0-14.9,2-19.4,5.9c-4.5,3.9-6.7,9-6.7,15.3
			c0,3.9,0.9,7.3,2.7,10.3c1.8,2.9,4.7,5.7,8.7,8.5c4,2.7,13.4,7.6,28.2,14.7c19.6,9.4,33,18.8,40.3,28.2
			C712,554.7,715.7,566.3,715.7,580z"/>
		<path class="st3" d="M823.6,641.1c-18.8,0-33.6-6.8-44.3-20.5H777c1.5,13.4,2.3,21.1,2.3,23.2v65h-43.7V477.8h35.6l6.2,20.8h2
			c10.2-15.9,25.4-23.8,45.5-23.8c18.9,0,33.8,7.3,44.5,21.9c10.7,14.6,16.1,34.9,16.1,61c0,17.1-2.5,32-7.5,44.6
			c-5,12.6-12.2,22.2-21.4,28.8C847,637.8,836.1,641.1,823.6,641.1z M810.7,509.8c-10.8,0-18.7,3.3-23.7,10
			c-5,6.6-7.6,17.6-7.7,32.9v4.7c0,17.2,2.6,29.5,7.7,37c5.1,7.5,13.2,11.2,24.3,11.2c19.6,0,29.4-16.2,29.4-48.5
			c0-15.8-2.4-27.6-7.2-35.5C828.6,513.8,821,509.8,810.7,509.8z"/>
		<path class="st3" d="M1008.6,638.2l-8.5-21.8H999c-7.4,9.3-14.9,15.7-22.7,19.3c-7.8,3.6-18,5.4-30.5,5.4
			c-15.4,0-27.5-4.4-36.4-13.2c-8.8-8.8-13.3-21.3-13.3-37.6c0-17,6-29.6,17.9-37.6c11.9-8.1,29.9-12.5,53.9-13.4l27.8-0.9v-7
			c0-16.3-8.3-24.4-25-24.4c-12.8,0-27.9,3.9-45.2,11.6L911,489c18.5-9.7,38.9-14.5,61.4-14.5c21.5,0,38,4.7,49.5,14.1
			c11.5,9.4,17.2,23.6,17.2,42.7v106.8H1008.6z M995.7,563.9l-16.9,0.6c-12.7,0.4-22.2,2.7-28.4,6.9c-6.2,4.2-9.3,10.6-9.3,19.2
			c0,12.3,7.1,18.5,21.2,18.5c10.1,0,18.2-2.9,24.3-8.7c6.1-5.8,9.1-13.6,9.1-23.2V563.9z"/>
		<path class="st3" d="M1159,474.8c5.9,0,10.9,0.4,14.8,1.3l-3.3,41c-3.5-1-7.8-1.4-12.9-1.4c-14,0-24.8,3.6-32.6,10.8
			c-7.8,7.2-11.7,17.2-11.7,30.1v81.6h-43.7V477.8h33.1l6.5,27h2.2c5-9,11.7-16.2,20.2-21.7C1139.8,477.6,1149,474.8,1159,474.8z"/>
		<path class="st3" d="M1230.2,551l19.1-24.4l44.9-48.8h49.3l-63.7,69.6l67.6,90.8h-50.5l-46.2-65l-18.8,15.1v49.9h-43.7V415h43.7
			v99.5l-2.3,36.4H1230.2z"/>
		<path class="st7" d="M1533,531.3c0,34.5-9.8,61-29.5,79.3c-19.6,18.4-48,27.5-85.1,27.5h-59.4V428.5h65.8c34.2,0,60.8,9,79.7,27.1
			C1523.6,473.7,1533,498.9,1533,531.3z M1486.8,532.5c0-45-19.9-67.6-59.7-67.6h-23.7v136.5h19.1
			C1465.4,601.5,1486.8,578.5,1486.8,532.5z"/>
		<path class="st7" d="M1630.9,641.1c-25.8,0-46-7.1-60.5-21.4c-14.5-14.2-21.8-34.4-21.8-60.5c0-26.9,6.7-47.6,20.2-62.3
			c13.4-14.7,32-22,55.7-22c22.7,0,40.3,6.5,52.9,19.4c12.6,12.9,18.9,30.7,18.9,53.5v21.2h-103.4c0.5,12.4,4.2,22.1,11,29.1
			c6.9,7,16.5,10.5,29,10.5c9.7,0,18.8-1,27.4-3c8.6-2,17.6-5.2,27-9.6v33.8c-7.7,3.8-15.8,6.7-24.5,8.5
			C1654.1,640.1,1643.4,641.1,1630.9,641.1z M1624.8,506c-9.3,0-16.5,2.9-21.8,8.8c-5.3,5.9-8.3,14.2-9,25h61.4
			c-0.2-10.8-3-19.1-8.5-25C1641.4,508.9,1634,506,1624.8,506z"/>
		<path class="st7" d="M1764.4,638.2h-43.7V428.5h120.2v36.4h-76.4V519h71.1v36.3h-71.1V638.2z"/>
		<path class="st7" d="M1861.9,436.4c0-14.2,7.9-21.4,23.8-21.4c15.9,0,23.8,7.1,23.8,21.4c0,6.8-2,12.1-6,15.8
			c-4,3.8-9.9,5.7-17.9,5.7C1869.8,457.9,1861.9,450.7,1861.9,436.4z M1907.5,638.2h-43.7V477.8h43.7V638.2z"/>
	</g>
</g>
<g id="Layer_5">
	<polygon class="st3" points="400.9,636.6 19.4,420.3 19.4,367.7 400.9,583.9 	"/>
	<polygon class="st7" points="400.9,689.2 19.4,473 19.4,420.3 400.9,636.5 	"/>
	<g id="XMLID_3_">
		<g>
			<polygon class="st3" points="401.8,483.6 401.8,483.9 401.7,483.9 401.5,483.7 401.5,483.4 			"/>
			<polygon class="st3" points="401.8,367.5 401.8,483.6 401.5,483.4 401.5,367.4 			"/>
			<polygon class="st3" points="401.8,367.3 401.8,367.5 401.5,367.4 401.5,367.3 			"/>
			<polygon class="st3" points="401.8,483.9 401.8,483.6 402,483.7 401.9,484 401.7,483.9 			"/>
			<polygon class="st3" points="401.7,483.9 401.5,483.9 401.5,483.7 			"/>
			<polygon class="st3" points="401.5,367.4 210.5,259.1 210.7,258.8 402,367.3 401.9,367.6 401.8,367.5 401.8,367.3 401.5,367.3 
							"/>
			<polygon class="st3" points="210.8,375.6 210.7,375.4 210.5,375.5 210.7,375.2 401.5,483.4 401.5,483.7 			"/>
			<polygon class="st3" points="210.7,375.4 210.8,375.6 210.5,375.5 210.5,375.5 			"/>
			<polygon class="st3" points="210.8,375.6 169.8,398.9 169.9,398.7 169.7,398.6 210.5,375.5 210.5,375.5 			"/>
			<polygon class="st3" points="210.5,259.1 401.5,367.4 401.5,483.4 210.7,375.2 210.5,375.5 169.7,398.6 67.2,340.5 210.5,259.2 
				210.5,259.1 			"/>
			<polygon class="st3" points="210.5,259.1 210.5,259.2 67.2,340.5 67,340.4 67,340.5 66.9,340.3 210.4,258.9 			"/>
			<polygon class="st3" points="169.9,398.7 169.8,398.9 169.7,399 169.5,398.8 169.4,398.8 169.7,398.6 			"/>
			<polygon class="st3" points="169.8,398.9 169.7,399 169.7,399 			"/>
			<polygon class="st3" points="169.7,399 169.6,399 169.5,398.8 			"/>
			<polygon class="st3" points="67.2,340.5 67,340.6 67,340.5 67,340.4 			"/>
			<polygon class="st3" points="67,340.6 67.2,340.5 169.7,398.6 169.4,398.8 169.5,398.8 66.9,340.7 67,340.5 			"/>
		</g>
		<g>
		</g>
	</g>
	<g id="XMLID_4_">
		<g>
			<polygon class="st7" points="19.2,699.9 19.5,699.9 19.5,699.9 210.4,808.1 210.3,808.4 19,699.9 19.1,699.7 19.2,699.7 			"/>
			<polygon class="st7" points="19.2,583.7 19.2,583.3 19.2,583.3 19.5,583.5 19.5,583.8 			"/>
			<polygon class="st7" points="19.2,699.7 19.2,583.7 19.5,583.8 19.5,699.9 			"/>
			<polygon class="st7" points="19.2,699.9 19.2,699.7 19.5,699.9 19.5,699.9 			"/>
			<polygon class="st7" points="19.1,583.3 19.2,583.3 19.2,583.3 19.2,583.7 19,583.5 			"/>
			<polygon class="st7" points="19.2,583.3 19.5,583.3 19.5,583.5 			"/>
			<polygon class="st7" points="210.3,692 19.5,583.8 19.5,583.5 210.2,691.6 210.2,691.6 210.3,691.9 210.4,691.8 			"/>
			<polygon class="st7" points="210.3,691.9 210.2,691.6 210.2,691.6 210.4,691.8 210.4,691.8 			"/>
			<polygon class="st7" points="210.2,691.6 251.2,668.3 251.1,668.5 251.3,668.6 210.4,691.8 210.4,691.8 			"/>
			<polygon class="st7" points="19.5,583.8 210.3,692 210.4,691.8 251.3,668.6 353.8,726.7 210.5,808 210.5,808.1 210.4,808.1 
				19.5,699.9 			"/>
			<polygon class="st7" points="251.1,668.5 251.2,668.3 251.3,668.3 251.5,668.4 251.6,668.5 251.3,668.6 			"/>
			<polygon class="st7" points="251.2,668.3 251.3,668.2 251.3,668.3 			"/>
			<polygon class="st7" points="251.3,668.3 251.4,668.2 251.5,668.4 			"/>
			<polygon class="st7" points="354.1,726.9 210.6,808.3 210.5,808.1 210.5,808 353.8,726.7 353.9,726.8 354,726.7 			"/>
			<polygon class="st7" points="353.8,726.7 353.9,726.7 354,726.7 353.9,726.8 			"/>
			<polygon class="st7" points="353.9,726.7 353.8,726.7 251.3,668.6 251.6,668.5 251.5,668.4 354.1,726.6 354,726.7 			"/>
		</g>
		<g>
		</g>
	</g>
</g>
</svg>
